<?xml version="1.0" encoding="utf-8"?>
<!-- Generator: Adobe Illustrator 17.0.0, SVG Export Plug-In . SVG Version: 6.00 Build 0)  -->
<!DOCTYPE svg PUBLIC "-//W3C//DTD SVG 1.0//EN" "http://www.w3.org/TR/2001/REC-SVG-20010904/DTD/svg10.dtd">
<svg version="1.0" id="Layer_1" xmlns="http://www.w3.org/2000/svg" xmlns:xlink="http://www.w3.org/1999/xlink" x="0px" y="0px"
	 width="84px" height="84px" viewBox="0 0 84 84" enable-background="new 0 0 84 84" xml:space="preserve">
<g>
	<path fill="#FFFFFF" d="M77.274,16.752h-13.64L55.47,8.507c0,0-0.04-0.04-0.061-0.04l-0.04-0.04l0,0
		c-1.212-1.212-2.849-1.98-4.708-1.98H33.686c-1.98,0-3.738,0.849-4.971,2.203v0.02l-7.982,8.083H6.79
		c-3.759,0-6.79,2.95-6.79,6.709v40.84c0,3.759,3.031,6.81,6.79,6.81h70.484c3.738,0,6.79-3.051,6.79-6.81v-40.84
		C84.064,19.702,81.013,16.752,77.274,16.752z M42.032,60.906c-10.286,0-18.672-8.406-18.672-18.712
		c0-10.326,8.386-18.712,18.672-18.712c10.306,0,18.672,8.386,18.672,18.712C60.704,52.499,52.338,60.906,42.032,60.906z
		 M76.001,27.563c-1.556,0-2.829-1.273-2.829-2.849c0-1.576,1.273-2.849,2.829-2.849c1.556,0,2.829,1.273,2.829,2.849
		C78.83,26.29,77.557,27.563,76.001,27.563z"/>
	<path fill="#FFFFFF" d="M42.032,28.048c-7.8,0-14.105,6.325-14.105,14.145c0,7.8,6.305,14.145,14.105,14.145
		c7.78,0,14.105-6.325,14.105-14.145S49.812,28.048,42.032,28.048z"/>
</g>
</svg>
