<?xml version="1.0" encoding="utf-8"?>
<!-- Generator: Adobe Illustrator 17.0.0, SVG Export Plug-In . SVG Version: 6.00 Build 0)  -->
<!DOCTYPE svg PUBLIC "-//W3C//DTD SVG 1.0//EN" "http://www.w3.org/TR/2001/REC-SVG-20010904/DTD/svg10.dtd">
<svg version="1.0" id="Layer_1" xmlns="http://www.w3.org/2000/svg" xmlns:xlink="http://www.w3.org/1999/xlink" x="0px" y="0px"
	 width="84px" height="84px" viewBox="0 0 84 84" enable-background="new 0 0 84 84" xml:space="preserve">
<path fill="#FFFFFF" d="M66.018,7.722H16.169c-4.088,0-7.401,3.122-7.401,6.973v50.735c0,3.851,3.314,6.973,7.401,6.973h49.849
	c4.088,0,7.402-3.122,7.402-6.973V14.696C73.42,10.844,70.106,7.722,66.018,7.722z M24.25,58.391c-2.043,0-3.699-1.66-3.699-3.707
	c0-2.047,1.656-3.707,3.699-3.707c2.043,0,3.699,1.66,3.699,3.707C27.949,56.732,26.293,58.391,24.25,58.391z M24.25,43.784
	c-2.043,0-3.699-1.66-3.699-3.707c0-2.047,1.656-3.707,3.699-3.707c2.043,0,3.699,1.66,3.699,3.707
	C27.949,42.125,26.293,43.784,24.25,43.784z M24.25,28.175c-2.043,0-3.699-1.66-3.699-3.707c0-2.047,1.656-3.707,3.699-3.707
	c2.043,0,3.699,1.66,3.699,3.707C27.949,26.516,26.293,28.175,24.25,28.175z M45.399,62.103l0.745-0.787l0.944,1.136L45.399,62.103z
	 M42.74,63.133l-0.671-26.209l-6.574-10.752l4.562-10.08l24.814,10.08L42.74,63.133z"/>
<circle fill="#FFFFFF" cx="24.149" cy="40.078" r="1.308"/>
</svg>
