<?xml version="1.0" encoding="utf-8"?>
<!-- Generator: Adobe Illustrator 17.0.0, SVG Export Plug-In . SVG Version: 6.00 Build 0)  -->
<!DOCTYPE svg PUBLIC "-//W3C//DTD SVG 1.0//EN" "http://www.w3.org/TR/2001/REC-SVG-20010904/DTD/svg10.dtd">
<svg version="1.0" id="Layer_1" xmlns="http://www.w3.org/2000/svg" xmlns:xlink="http://www.w3.org/1999/xlink" x="0px" y="0px"
	 width="84px" height="84px" viewBox="0 0 84 84" enable-background="new 0 0 84 84" xml:space="preserve">
<g>
	<g>
		
			<ellipse transform="matrix(0.2133 -0.977 0.977 0.2133 -31.5658 87.6522)" fill-rule="evenodd" clip-rule="evenodd" fill="#FFFFFF" cx="38.644" cy="63.427" rx="1.089" ry="3.65"/>
	</g>
	<g>
		<path fill-rule="evenodd" clip-rule="evenodd" fill="#FFFFFF" d="M70.917,20.407c5.481,3.772,8.41,7.709,7.662,11.139
			c-0.5,2.289-2.578,4.102-5.847,5.396c-1.64-1.42-3.638-2.864-6.112-4.211c2.926-1,4.707-2.452,5.129-4.383
			c0.716-3.283-2.924-7.152-9.225-10.579c3.929,2.702,6.026,5.523,5.491,7.982c-1.232,5.649-15.857,7.254-32.675,3.586
			c-10.083-2.198-18.661-5.791-23.647-9.536c3.988,4.79,14.246,9.761,26.843,12.507c11.477,2.501,21.624,2.627,27.648,0.572
			c2.224,1.533,4.242,2.993,5.273,4.525c-8.255,2.699-22.666,2.589-38.462-0.854C18.922,33.482,6.957,28.468,0,23.247
			c5.565,6.683,19.878,13.615,37.447,17.447c8.912,1.942,17.399,2.812,24.619,2.705c1.357,1.093,2.362,2.194,2.956,3.265
			c-6.692,1.573-17.119,1.28-28.459-1.191c-11.098-2.421-20.537-6.374-26.027-10.494c4.394,5.273,15.68,10.742,29.542,13.763
			c9.539,2.079,18.449,2.597,25.1,1.75c-0.984,1.658-3.457,2.826-6.947,3.455c-0.931-0.869-2.179-1.735-3.694-2.558
			c1.302,0.895,2.264,1.81,2.807,2.702c-5.41,0.794-12.946,0.396-21.055-1.373c-9.041-1.969-16.729-5.191-21.198-8.545
			c3.575,4.292,12.77,8.747,24.059,11.209c6.755,1.473,13.127,1.984,18.235,1.639c-1.971,2.623-9.956,3.218-19.004,1.244
			c-5.996-1.306-11.093-3.442-14.058-5.667c2.373,2.847,8.468,5.8,15.956,7.434c10.137,2.208,18.977,1.158,19.742-2.354
			c0.065-0.301,0.061-0.613,0.007-0.929c5.003-0.703,8.343-2.386,8.897-4.916c0.138-0.64,0.084-1.307-0.132-1.989
			c4.41-1.058,7.282-2.905,7.839-5.459c0.207-0.954,0.078-1.953-0.348-2.976c4.207-1.395,6.905-3.498,7.504-6.24
			C84.785,30.589,79.708,25.188,70.917,20.407z M66.346,46.321c-1.035-0.988-1.902-1.929-3.452-2.888
			c3.603-0.071,6.438-0.428,9.291-0.977C71.345,44.145,69.299,45.444,66.346,46.321z"/>
	</g>
</g>
</svg>
