<?xml version="1.0" encoding="utf-8"?>
<!-- Generator: Adobe Illustrator 17.0.0, SVG Export Plug-In . SVG Version: 6.00 Build 0)  -->
<!DOCTYPE svg PUBLIC "-//W3C//DTD SVG 1.0//EN" "http://www.w3.org/TR/2001/REC-SVG-20010904/DTD/svg10.dtd">
<svg version="1.0" id="Layer_1" xmlns="http://www.w3.org/2000/svg" xmlns:xlink="http://www.w3.org/1999/xlink" x="0px" y="0px"
	 width="84px" height="84px" viewBox="0 0 84 84" enable-background="new 0 0 84 84" xml:space="preserve">
<circle fill="#FFFFFF" cx="24.149" cy="40.078" r="1.308"/>
<g>
	<path fill="#FFFFFF" d="M57.673,46.386c1.951-0.578,3.301-1.436,3.854-2.55c-1.882,0.363-3.753,0.598-6.13,0.645
		C56.419,45.113,56.99,45.735,57.673,46.386z"/>
	<path fill="#FFFFFF" d="M41.489,7.764c-17.85,0-32.319,14.47-32.319,32.319s14.47,32.319,32.319,32.319s32.319-14.47,32.319-32.319
		S59.339,7.764,41.489,7.764z M39.236,58.38c-1.3-0.284-2.285-0.828-2.201-1.216c0.085-0.389,1.207-0.474,2.507-0.19
		c1.3,0.284,2.285,0.828,2.2,1.216C41.658,58.578,40.536,58.663,39.236,58.38z M64.234,43.145c0.282,0.675,0.366,1.334,0.229,1.964
		c-0.367,1.686-2.262,2.906-5.174,3.604c0.141,0.45,0.178,0.889,0.086,1.312c-0.364,1.671-2.569,2.781-5.871,3.246
		c0.035,0.209,0.038,0.413-0.005,0.612c-0.504,2.318-6.339,3.012-13.03,1.553c-4.943-1.078-8.966-3.027-10.531-4.906
		c1.957,1.468,5.321,2.879,9.278,3.741c5.973,1.303,11.242,0.909,12.544-0.822c-3.372,0.227-7.577-0.11-12.035-1.082
		c-7.452-1.624-13.52-4.565-15.881-7.398c2.951,2.214,8.025,4.34,13.992,5.641c5.351,1.167,10.326,1.429,13.897,0.905
		c-0.359-0.588-0.993-1.192-1.852-1.784c0.999,0.543,1.823,1.115,2.437,1.688c2.304-0.414,3.938-1.186,4.585-2.279
		c-4.39,0.558-10.272,0.217-16.568-1.156c-9.149-1.995-16.599-5.604-19.498-9.084c3.622,2.719,9.853,5.33,17.179,6.926
		c7.484,1.631,14.366,1.824,18.784,0.787c-0.393-0.707-1.057-1.434-1.952-2.155c-4.766,0.07-10.366-0.504-16.248-1.786
		c-11.598-2.528-21.044-7.105-24.718-11.516c4.593,3.447,12.49,6.756,21.777,8.781c10.426,2.272,19.938,2.345,25.386,0.563
		c-0.68-1.011-2.012-1.973-3.48-2.987c-3.976,1.358-10.673,1.275-18.249-0.376c-8.314-1.812-15.084-5.092-17.718-8.255
		c3.293,2.47,8.954,4.843,15.611,6.294c11.099,2.42,20.754,1.361,21.567-2.367c0.353-1.624-1.031-3.486-3.624-5.27
		c4.16,2.262,6.562,4.816,6.089,6.983c-0.278,1.274-1.454,2.232-3.384,2.892c1.632,0.889,2.952,1.843,4.034,2.78
		c2.157-0.855,3.53-2.051,3.859-3.562c0.494-2.264-1.439-4.862-5.057-7.351c5.803,3.156,9.154,6.72,8.495,9.743
		C68.792,40.836,67.011,42.224,64.234,43.145z"/>
</g>
</svg>
